<?xml version="1.0" encoding="utf-8"?>
<!-- Generator: Adobe Illustrator 16.0.0, SVG Export Plug-In . SVG Version: 6.00 Build 0)  -->
<!DOCTYPE svg PUBLIC "-//W3C//DTD SVG 1.1//EN" "http://www.w3.org/Graphics/SVG/1.1/DTD/svg11.dtd">
<svg version="1.1" id="Layer_1" xmlns="http://www.w3.org/2000/svg" xmlns:xlink="http://www.w3.org/1999/xlink" x="0px" y="0px"
	 width="24px" height="24px" viewBox="0 0 24 24" enable-background="new 0 0 24 24" xml:space="preserve">
<path fill="#B2BCCB" d="M12,23.1C5.879,23.1,0.9,18.12,0.9,12S5.879,0.9,12,0.9C18.12,0.9,23.1,5.88,23.1,12S18.12,23.1,12,23.1z
	 M12,2.9C6.982,2.9,2.9,6.982,2.9,12S6.982,21.1,12,21.1c5.018,0,9.1-4.082,9.1-9.1S17.018,2.9,12,2.9z"/>
<rect x="11.232" y="6.085" fill="#B2BCCB" width="2" height="12"/>
<rect x="14.011" y="5.753" transform="matrix(0.7071 -0.7071 0.7071 0.7071 -2.1805 13.3383)" fill="#B2BCCB" width="2" height="7.097"/>
<rect x="8.417" y="5.753" transform="matrix(-0.7071 -0.7071 0.7071 -0.7071 9.4984 22.5369)" fill="#B2BCCB" width="2" height="7.097"/>
<circle fill="#B2BCCB" cx="12.217" cy="7.226" r="1.516"/>
</svg>
