<?xml version="1.0" encoding="utf-8"?>
<!-- Generator: Adobe Illustrator 16.0.0, SVG Export Plug-In . SVG Version: 6.00 Build 0)  -->
<!DOCTYPE svg PUBLIC "-//W3C//DTD SVG 1.1//EN" "http://www.w3.org/Graphics/SVG/1.1/DTD/svg11.dtd">
<svg version="1.1" id="Layer_1" xmlns="http://www.w3.org/2000/svg" xmlns:xlink="http://www.w3.org/1999/xlink" x="0px" y="0px"
	 width="36px" height="17px" viewBox="0 0 36 17" enable-background="new 0 0 36 17" xml:space="preserve">
<g>
	<path fill="#BBBCCA" d="M2.789,8.779c-0.072,0-0.132,0.058-0.142,0.138c0,0-0.334,3.054-0.334,3.054l0.334,2.985
		c0.01,0.08,0.069,0.138,0.142,0.138c0.072,0,0.129-0.057,0.141-0.137l0.38-2.986L2.93,8.917C2.918,8.835,2.861,8.779,2.789,8.779z"
		/>
	<path fill="#BBBCCA" d="M1.532,9.949c-0.071,0-0.127,0.055-0.136,0.133l-0.249,1.889l0.249,1.855
		c0.009,0.078,0.065,0.133,0.136,0.133c0.069,0,0.125-0.055,0.136-0.132l0.294-1.856l-0.294-1.89
		C1.657,10.004,1.601,9.949,1.532,9.949z"/>
	<path fill="#BBBCCA" d="M4.125,8.181c-0.09,0-0.161,0.07-0.17,0.167c0,0-0.317,3.623-0.317,3.623l0.317,3.49
		c0.009,0.098,0.081,0.167,0.17,0.167c0.088,0,0.16-0.069,0.17-0.167l0.36-3.49l-0.36-3.623C4.284,8.251,4.213,8.181,4.125,8.181z"
		/>
	<path fill="#BBBCCA" d="M5.471,8.053c-0.105,0-0.191,0.084-0.199,0.196l-0.3,3.722l0.3,3.602c0.008,0.111,0.094,0.195,0.199,0.195
		c0.104,0,0.19-0.084,0.199-0.195l0.341-3.602L5.67,8.248C5.661,8.137,5.576,8.053,5.471,8.053z"/>
	<polygon fill="#BBBCCA" points="7.057,15.602 7.057,15.602 7.057,15.603 	"/>
	<path fill="#BBBCCA" d="M7.057,8.517C7.048,8.39,6.95,8.293,6.829,8.293c-0.123,0-0.221,0.097-0.228,0.226l-0.283,3.453
		l0.283,3.631c0.007,0.128,0.105,0.225,0.228,0.225c0.122,0,0.22-0.097,0.229-0.226l0.321-3.63L7.057,8.517z"/>
	<path fill="#BBBCCA" d="M8.198,6.1C8.06,6.1,7.947,6.212,7.94,6.355c0,0-0.266,5.618-0.266,5.618l0.266,3.631
		c0.007,0.142,0.12,0.254,0.258,0.254c0.136,0,0.249-0.112,0.257-0.255v0.001l0.301-3.631L8.455,6.355
		C8.447,6.212,8.333,6.1,8.198,6.1z"/>
	<path fill="#BBBCCA" d="M9.556,4.806c-0.154,0-0.28,0.125-0.287,0.284c0,0-0.249,6.902-0.249,6.902l0.249,3.608
		c0.006,0.157,0.132,0.282,0.286,0.282c0.153,0,0.279-0.125,0.287-0.283l0,0.002l0.281-3.609L9.842,5.09
		C9.835,4.931,9.709,4.806,9.556,4.806z"/>
	<path fill="#BBBCCA" d="M10.967,4.183c-0.171,0-0.31,0.138-0.315,0.313c0,0-0.231,7.479-0.231,7.479l0.231,3.57
		c0.006,0.174,0.145,0.312,0.315,0.312c0.17,0,0.309-0.137,0.315-0.312v0.002l0.261-3.571l-0.261-7.479
		C11.276,4.32,11.137,4.183,10.967,4.183z"/>
	<path fill="#BBBCCA" d="M12.713,4.244c-0.006-0.192-0.157-0.342-0.344-0.342c-0.188,0-0.339,0.15-0.345,0.342l-0.214,7.73
		l0.214,3.549c0.005,0.189,0.157,0.34,0.344,0.34c0.187,0,0.338-0.15,0.344-0.342l0.242-3.547L12.713,4.244z"/>
	<polygon fill="#BBBCCA" points="12.713,15.521 12.713,15.521 12.713,15.523 	"/>
	<path fill="#BBBCCA" d="M13.781,4.07c-0.205,0-0.369,0.164-0.374,0.372l-0.197,7.534l0.197,3.515
		c0.004,0.207,0.168,0.37,0.374,0.37c0.204,0,0.368-0.163,0.373-0.372v0.002l0.222-3.515l-0.222-7.534
		C14.149,4.233,13.985,4.07,13.781,4.07z"/>
	<path fill="#BBBCCA" d="M15.205,4.316c-0.222,0-0.398,0.176-0.403,0.401l-0.18,7.259l0.18,3.492
		c0.004,0.223,0.181,0.398,0.403,0.398c0.221,0,0.397-0.176,0.402-0.401v0.003l0.202-3.492l-0.202-7.26
		C15.602,4.493,15.425,4.316,15.205,4.316z"/>
	<path fill="#BBBCCA" d="M16.877,2.982c-0.068-0.046-0.15-0.073-0.238-0.073c-0.085,0-0.165,0.026-0.232,0.07
		c-0.118,0.077-0.197,0.209-0.199,0.36L16.206,3.42l-0.162,8.554c0,0.005,0.163,3.472,0.163,3.472c0,0.005,0.001,0.01,0.001,0.015
		c0.005,0.098,0.042,0.186,0.101,0.257c0.08,0.095,0.198,0.156,0.33,0.156c0.117,0,0.224-0.048,0.302-0.126s0.127-0.186,0.13-0.304
		l0.018-0.343l0.164-3.125L17.07,3.339C17.067,3.191,16.991,3.06,16.877,2.982z"/>
	<polygon fill="#BBBCCA" points="17.07,15.447 17.07,15.445 17.07,15.447 17.07,15.445 17.07,15.444 17.07,15.444 17.07,15.445 	"/>
	<path fill="#BBBCCA" d="M18.301,2.164c-0.069-0.042-0.149-0.066-0.234-0.066c-0.109,0-0.211,0.039-0.291,0.105
		c-0.102,0.084-0.168,0.212-0.17,0.354l-0.001,0.048l-0.188,9.373l0.096,1.733l0.093,1.686c0.003,0.25,0.209,0.456,0.46,0.456
		s0.457-0.206,0.46-0.46v0.004l0,0l0.205-3.419l0,0l-0.205-9.421C18.524,2.39,18.434,2.244,18.301,2.164z"/>
	<path fill="#BBBCCA" d="M30.965,7.518c-0.572,0-1.119,0.116-1.617,0.325c-0.333-3.769-3.493-6.725-7.349-6.725
		c-0.943,0-1.863,0.186-2.675,0.5c-0.316,0.123-0.399,0.248-0.403,0.492c0,0,0,13.273,0,13.273c0.004,0.257,0.202,0.455,0.452,0.479
		c0.011,0.002,11.592,0,11.592,0c2.31,0,4.183-1.852,4.183-4.16C35.147,9.391,33.274,7.518,30.965,7.518z"/>
</g>
</svg>
