<?xml version="1.0" encoding="utf-8"?>
<!-- Generator: Adobe Illustrator 16.0.0, SVG Export Plug-In . SVG Version: 6.00 Build 0)  -->
<!DOCTYPE svg PUBLIC "-//W3C//DTD SVG 1.1//EN" "http://www.w3.org/Graphics/SVG/1.1/DTD/svg11.dtd">
<svg version="1.1" xmlns="http://www.w3.org/2000/svg" xmlns:xlink="http://www.w3.org/1999/xlink" x="0px" y="0px" width="28px"
	 height="24px" viewBox="0 0 28 24" enable-background="new 0 0 28 24" xml:space="preserve">
<g id="Layer_2">
</g>
<g id="Layer_1">
	<path fill="#BBBCCA" d="M27.436,3.655c-0.989,0.439-2.054,0.736-3.172,0.869c1.141-0.683,2.017-1.765,2.429-3.054
		c-1.067,0.632-2.25,1.092-3.506,1.339c-1.007-1.072-2.441-1.743-4.028-1.743c-3.051,0-5.522,2.471-5.522,5.521
		c0,0.433,0.048,0.854,0.143,1.258C9.191,7.615,5.123,5.417,2.401,2.078C1.925,2.892,1.653,3.841,1.653,4.853
		c0,1.915,0.975,3.604,2.456,4.594c-0.905-0.028-1.756-0.276-2.5-0.69c0,0.023,0,0.046,0,0.069c0,2.675,1.902,4.904,4.427,5.412
		c-0.463,0.127-0.951,0.195-1.454,0.195c-0.356,0-0.702-0.037-1.039-0.1c0.702,2.191,2.741,3.789,5.157,3.834
		c-1.889,1.48-4.27,2.363-6.856,2.363c-0.445,0-0.885-0.027-1.317-0.078c2.443,1.568,5.345,2.48,8.462,2.48
		c10.153,0,15.707-8.412,15.707-15.707c0-0.239-0.005-0.477-0.016-0.714C25.759,5.735,26.695,4.763,27.436,3.655z"/>
</g>
</svg>
